<?xml version="1.0" encoding="utf-8"?>
<!-- Generator: Adobe Illustrator 22.1.0, SVG Export Plug-In . SVG Version: 6.00 Build 0)  -->
<svg version="1.1" id="Camada_1" xmlns="http://www.w3.org/2000/svg" xmlns:xlink="http://www.w3.org/1999/xlink" x="0px" y="0px"
	 viewBox="0 0 908 417" style="enable-background:new 0 0 908 417;" xml:space="preserve">
<style type="text/css">
	.st0{fill:#615F5D;}
	.st1{fill:#615F5E;}
	.st2{fill:#646462;}
	.st3{fill:#F3AE03;}
</style>
<g id="Camada_1_1_">
	<g>
		<path class="st0" d="M78.9,312.5C74.9,236.8,71,161.1,67,85c23.4,0,46.3,0,69.9,0c0.8,41.6,1.5,83.2,2.3,124.8
			c0.5,0.1,1,0.3,1.4,0.4c19.6-41.7,39.3-83.3,59-125.2c23.3,0,46.5,0,70.1,0c4.6,41.8,9.2,83.4,13.7,124.9c0.5,0.1,1,0.2,1.4,0.3
			c16.1-41.5,31.6-83.3,47.7-125.2c22.9,0,45.8,0,69.6,0c-31.4,76.1-62.7,151.9-94,227.8c-24.1,0-47.9,0-72.5,0
			c-5.2-46.9-10.5-93.9-15.7-140.9c-0.4-0.1-0.7-0.3-1.1-0.4c-0.8,1.1-1.7,2.1-2.2,3.2c-9.9,20.9-19.8,41.8-29.7,62.7
			c-11.4,24.1-22.7,48.2-34,72.3c-1,2.1-2.1,3.4-4.8,3.4c-22.5-0.1-45-0.1-67.5-0.1C80.3,313,79.8,312.8,78.9,312.5z"/>
		<path class="st1" d="M468.4,150.3c-20-3.5-39.6-7-60-10.6c1.2-2.6,2.1-5,3.3-7.2c13.8-25,34.4-41.2,62.3-47.6
			c26-5.9,52.2-5.8,78.2,0.1c10.9,2.5,20.8,7.2,28.3,15.9c12.4,14.4,13.3,30.7,7,47.8c-5.8,15.7-17.9,25.7-31.8,33.9
			c-2.2,1.3-4.5,2.5-7.9,4.4c2.7,0.9,4.1,1.5,5.6,1.9c22.4,6.6,33.2,21.7,31.7,45c-0.6,8.7-2.9,17.1-6.6,25
			c-14.4,30.5-38.5,48.6-71.4,55.1c-23.1,4.5-46.4,4.5-69.5-0.1c-28.6-5.7-46.3-22.8-52.3-53.3c-0.4-2.3-0.8-4.5-1.2-7.4
			c22.6-2.8,44.8-5.5,67.5-8.4c0.4,3.7,0.6,7.2,1.2,10.5c3.5,19.2,17.1,27.7,35.8,22.1c16.9-5.1,25.7-17.6,28.5-34.6
			c0.6-3.6,0.7-7.3,0.4-10.9c-1.1-11.9-9.1-19.6-21-21c-9.1-1-17.9,0.8-27.6,3.2c3.9-15.2,7.7-29.9,11.5-44.7
			c9.2,1.3,17.7,0.9,25.6-3.4c9.6-5.3,16.6-12.5,18.6-23.9c2.1-12-4.9-21.2-17-22.1c-15.9-1.1-26.8,5-34,19.3
			C471.6,142.7,470.2,146.3,468.4,150.3z"/>
		<path class="st2" d="M561.9,370.7c2.2-12.9,4.3-25.5,6.5-38.4c3.3,0,6.3,0,10.2,0c0,8.1,0,16,0,23.9c0.5,0.1,1,0.2,1.4,0.3
			c3.1-8.1,6.2-16.2,9.3-24.3c3.3,0,6.5,0,10.3,0c-2,13-4.1,25.6-6.1,38.6c-2.1,0-4,0-6.4,0c1.4-8.2,2.8-16.2,4.2-24.2
			c-0.4-0.1-0.7-0.2-1.1-0.3c-3.1,8.2-6.2,16.3-9.4,24.6c-2,0-3.9,0-6.1,0c-0.6-8.2-1.2-16.3-1.8-24.3c-0.2,0-0.5,0-0.7-0.1
			c-1.3,8.1-2.6,16.2-3.9,24.3C566,370.7,564.1,370.7,561.9,370.7z"/>
		<path class="st2" d="M204.4,332.2c3.3,0,6.3,0,9.8,0c0.3,8,0.7,15.9,1,23.9c0.3,0.1,0.5,0.2,0.8,0.3c3.1-8,6.2-16.1,9.3-24.2
			c3.4,0,6.6,0,10.3,0c-2,12.9-4,25.5-6.1,38.4c-2,0-3.9,0-6.4,0c1.4-8.1,2.8-16.1,4.2-24.2c-0.4-0.1-0.7-0.2-1.1-0.3
			c-3.1,8.1-6.2,16.3-9.4,24.6c-2,0-3.9,0-6.3,0c-0.3-8.2-0.6-16.2-0.9-24.2c-0.5,0-0.9,0-1.4-0.1c-1.3,8-2.6,16-4,24.2
			c-2.1,0-4,0-6.3,0C200.1,357.9,202.2,345.3,204.4,332.2z"/>
		<path class="st2" d="M196.2,347.9c-0.1,6.5-1.7,12.5-5.9,17.6c-4.3,5.3-11.1,7.5-17,5.6c-5.4-1.8-9.1-7.1-9.3-14
			c-0.3-7.2,1.3-13.9,5.9-19.7c3.9-4.9,9.2-7.2,15.5-5.9C192.4,333,196.2,338.9,196.2,347.9z M170.1,354.2c0.7,6,2.7,9.7,6.6,10.7
			c3.9,1,8.4-1.5,10.3-6.8c1.4-3.9,2.2-8.3,2.2-12.5c-0.1-4.4-2.7-7-6-7.5c-4-0.5-7,1.4-8.7,4.6
			C172.6,346.3,171.5,350.3,170.1,354.2z"/>
		<path class="st2" d="M370.1,350.8c-0.1,3.5-1.4,9-5,13.6c-1.7,2.2-3.9,4.3-6.3,5.6c-9.6,5.1-19.4-0.3-20.7-11.4
			c-0.7-5.8,0.5-11.3,2.9-16.5c3.7-8,11.2-12.2,18.4-10.5C366.5,333.2,370.4,339.2,370.1,350.8z M344.8,354.8c-0.1,5.4,2,8.9,5.7,10
			c3.7,1,8-1.4,10.2-6.2c2-4.2,3.4-8.6,2.5-13.4c-0.7-3.4-2.2-6-5.5-7c-3.6-1-6.5,0.7-8.6,3.6C346.3,345.7,344.8,350,344.8,354.8z"
			/>
		<path class="st2" d="M557.7,364.4c-0.4,2.5-0.8,4.3-1.1,6.3c-8.5,0-16.9,0-25.6,0c2.3-12.9,4.6-25.6,6.9-38.5c8,0,15.8,0,24.2,0
			c-0.4,2.2-0.8,4.1-1.3,6.5c-5.7,0-11.2,0-17,0c-0.5,2.9-0.9,5.4-1.5,8.6c5.7,0,10.9,0,16.7,0c-0.5,2.5-0.9,4.4-1.4,6.6
			c-5.4,0-10.7,0-16.6,0c-0.6,3.4-1.2,6.5-1.9,10.5C545.6,364.4,551.4,364.4,557.7,364.4z"/>
		<path class="st1" d="M411.5,364.1c-0.4,2.8-0.6,4.6-0.9,6.9c-4.3,0-8.4,0-12.5,0s-8.3,0-13,0c2.4-13.2,4.7-26,7-38.8
			c8.2,0,16,0,24.2,0c-0.5,2.2-0.9,4.1-1.4,6.3c-5.6,0-11,0-16.9,0c-0.5,2.9-1,5.4-1.6,8.6c5.6,0,10.8,0,16.8,0
			c-0.5,2.6-0.9,4.4-1.4,6.7c-5.4,0-10.9,0-16.6,0c-0.6,3.4-1.2,6.5-1.8,10.3C399.3,364.1,405,364.1,411.5,364.1z"/>
		<path class="st2" d="M294,356.9c2.2,0.5,4.1,0.9,6.4,1.4c-2.1,7.7-6.5,12.4-14.2,13.7c0.9,7.1-2.3,9.7-11.4,9.3
			c-0.5-2.7,1.3-2.8,3.2-3c1.9-0.2,4-0.3,4.6-3.4c-1.5-0.5-2.9-0.9-4.5-1.4c0.2-0.9,0.5-1.9,0.8-3.1c-8.3-8.7-8.5-24.8-0.2-34
			c4.1-4.5,9.2-6.6,15.3-4.6c5,1.6,7.6,5.4,8.1,11.9c-1.9,0.2-3.8,0.3-5.5,0.5c-0.5-0.4-0.9-0.5-1-0.8c-0.9-2.8-2.1-5.4-5.6-5.5
			c-3.3-0.1-5.7,1.7-7.3,4.5c-2.8,5.1-4,10.5-2.8,16.3c0.6,3,2,5.4,5.2,6c3.4,0.6,5.7-1.4,7.3-4.2
			C292.8,359.7,293.2,358.6,294,356.9z"/>
		<path class="st2" d="M108,332.2c2.7,0,4.6,0,6.9,0c-1.5,8.2-2.8,16.2-4.3,24.2c-1,5.3-0.2,7.5,3.4,8.5c3.9,1.1,7.9-0.7,9.1-4.9
			c1.7-5.9,2.6-12,3.9-18c0.7-3.2,1.2-6.5,1.8-9.7c2.4,0,4.5,0,7.1,0c-2,9.9-3.6,19.6-6.1,29c-2.2,8.4-9.7,12.1-17.9,10
			c-5.8-1.4-9.6-6.3-8.7-12.1C104.5,350.2,106.3,341.3,108,332.2z"/>
		<path class="st2" d="M662.8,342.8c-1.8,0.1-3.6,0.3-5.6,0.4c-1.4-3-3-6.3-7-5.5c-1.5,0.3-3.7,1.4-4.1,2.7
			c-0.4,1.3,0.5,3.7,1.6,4.6c2.1,1.8,4.8,2.9,7.2,4.3c5.2,3.1,6.9,7,5.9,12.5c-0.9,5-4.8,8.7-10.2,9.7c-9.4,1.8-16.1-3.8-15.4-13.3
			c1.9-0.1,3.8-0.2,5.6-0.3c2.2,6.2,4.1,8,8.6,6.8c1.7-0.5,3.8-2.3,4.3-3.9c0.4-1.2-1.2-3.6-2.5-4.7c-2.2-1.7-5-2.7-7.3-4.2
			c-4.5-2.8-6.1-7.2-4.9-12.5c1-4.4,4.7-7.5,9.6-8.2C656.7,330.1,662.5,334.8,662.8,342.8z"/>
		<path class="st2" d="M473.3,358.3c1.5-0.1,2.6-0.2,3.8-0.2c0.6,0,1.3,0.1,1.9,0.1c2.1,5.9,3.7,7.3,8.2,6.8
			c2.3-0.3,4.2-1.2,4.9-3.6c0.7-2.5-0.6-4.1-2.7-5.3c-2.5-1.4-5-2.6-7.4-4.1c-4.4-2.8-5.9-6.7-4.9-12.1c0.9-4.5,4.4-7.7,9.3-8.5
			c8.2-1.4,14.4,3.5,14.5,11.5c-1.8,0.1-3.6,0.2-5.7,0.3c-1.3-3.1-2.9-6.3-7-5.4c-1.5,0.3-3.7,1.5-4.1,2.7c-0.4,1.3,0.5,3.7,1.7,4.6
			c2.1,1.8,4.8,2.9,7.2,4.3c5.1,3.1,6.8,6.6,5.9,12c-0.8,5.1-4.5,8.9-9.8,10C479.5,373.6,472.4,367.8,473.3,358.3z"/>
		<path class="st2" d="M429.1,358.4c3-0.2,4.9-0.3,6.8-0.4c2.1,6.1,3.7,7.5,8.2,7c2.3-0.3,4.2-1.1,4.8-3.6c0.7-2.5-0.6-4.2-2.7-5.3
			c-2.5-1.4-5-2.6-7.4-4.1c-4.4-2.7-5.9-6.8-4.9-12.1c0.9-4.4,4.1-7.5,8.8-8.4c8.4-1.7,14.9,3.2,14.9,11.4c-1.8,0.1-3.6,0.2-5.7,0.3
			c-1.3-3.4-3.3-6.4-7.5-5.4c-1.4,0.3-3.2,1.5-3.6,2.7s0.3,3.5,1.3,4.3c2.1,1.8,4.8,2.9,7.2,4.4c5.4,3.3,7.3,6.8,6.3,12.3
			c-1,5.2-4.1,8.6-9.3,9.9c-5.5,1.4-12.1-0.3-14.4-4.2C430.7,364.8,430.2,361.8,429.1,358.4z"/>
		<path class="st2" d="M332.1,370.8c-2.5,0-4.3,0-6.3,0c-0.4-2.6-0.8-5-1.2-7.8c-4.3,0-8.5,0-13.2,0c-1.2,2.4-2.5,5-3.9,7.8
			c-2.1,0-4.2,0-7,0c6.3-13.1,12.4-25.7,18.5-38.6c2.5,0,4.9,0,7.9,0C328.6,344.9,330.3,357.6,332.1,370.8z M314.7,355.6
			c3.5,0,6.2,0,9.2,0c-0.7-4.9-1.3-9.5-2-15.2C319.2,346,317,350.6,314.7,355.6z"/>
		<path class="st2" d="M252,332.2c2.7,0,5.1,0,7.9,0c1.7,12.8,3.4,25.4,5.2,38.4c-2.1,0-3.9,0-6.2,0c-0.4-2.4-0.8-5-1.3-7.8
			c-4.3,0-8.4,0-13.1,0c-1.2,2.4-2.5,5-3.9,7.9c-2,0-4.1,0-7,0C239.8,357.7,245.9,344.9,252,332.2z M247.7,355.6c3.5,0,6.2,0,9.1,0
			c-0.7-4.9-1.3-9.5-2-15.2C252.2,346.1,250,350.7,247.7,355.6z"/>
		<path class="st2" d="M84,332.2c3,0,5.2,0,7.9,0c1.7,12.9,3.4,25.6,5.2,38.6c-2.3,0-4,0-6.2,0c-0.4-2.6-0.9-5.1-1.3-7.9
			c-4.4,0-8.7,0-13,0c-1.3,2.6-2.6,5.1-4,7.9c-2,0-4.1,0-7,0C71.8,357.7,77.9,344.9,84,332.2z M87.1,341.8c-0.3-0.1-0.5-0.1-0.8-0.2
			c-2.1,4.6-4.3,9.2-6.5,14.1c3.3,0,6,0,9.1,0C88.2,350.9,87.6,346.3,87.1,341.8z"/>
		<path class="st2" d="M616,332.1c2.9,0,5.2,0,7.9,0c1.7,12.9,3.4,25.6,5.2,38.6c-2.2,0-4,0-6.2,0c-0.4-2.5-0.8-5-1.4-8.2
			c-3.7,0-7.3-0.2-10.9,0.1c-1.2,0.1-2.5,1.3-3.3,2.3c-1.2,1.7-1.9,3.8-2.9,5.8c-2.1,0-4.1,0-7,0C603.8,357.7,609.9,345,616,332.1z
			 M618.8,340.3c-2.7,5.8-4.9,10.4-7.1,15.3c3.4,0,6.2,0,9.1,0C620.2,350.7,619.6,346.1,618.8,340.3z"/>
		<path class="st2" d="M516,338.9c-3.2-0.2-5.9-0.3-9.3-0.5c0.2-2.1,0.4-4,0.6-6.1c8.8,0,17.2,0,25.9,0c-0.2,2-0.4,3.8-0.6,6.1
			c-3.1,0.1-6,0.3-9.4,0.4c-1.9,10.6-3.9,21.1-5.9,32c-2.2,0-4.3,0-6.8,0C512.4,360,514.2,349.6,516,338.9z"/>
		<path class="st2" d="M165.2,332.3c-0.2,1.9-0.3,3.7-0.5,6c-3.1,0.2-6,0.4-9.5,0.6c-1.9,10.4-3.9,21-5.9,31.9c-2.1,0-4.2,0-6.8,0
			c1.8-10.6,3.6-21,5.5-31.9c-3.1-0.1-5.9-0.3-9.2-0.4c0.2-2.1,0.4-4,0.5-6.1C148.1,332.3,156.5,332.3,165.2,332.3z"/>
		<path class="st2" d="M465.5,370.8c-2.4,0-4.3,0-6.9,0c2.3-13,4.6-25.6,6.9-38.5c2.3,0,4.4,0,6.9,0
			C470.1,345.2,467.8,357.7,465.5,370.8z"/>
		<path class="st2" d="M317.1,328.9c0-6.2,1.7-7.6,6.5-6.3c1.4,0.4,2.9,0.7,4.2,0.6c1.2-0.1,2.2-0.9,3.6-1.6c0,5-1.4,7.2-4.3,6.3
			C323.6,326.9,320.4,326.3,317.1,328.9z"/>
	</g>
</g>
<g id="Camada_2_1_">
	<path class="st3" d="M876.9,16c0,0-202.2,97.5-249.9,162.1s-10.7,86.6-10.7,86.6l3.7,2.4l209.6,137.6c0,0-74.9-91.1-85.1-118.2
		c-9.1-24.1-8.9-35.5-8.4-39.3c0.2-1.2,0.3-2.3,0.4-3.5c0.4-6.2,3.8-25.4,29-33.9c30.2-10.2,60.9-22.3,60.9-22.3s11.5-4,13.7-17.5
		S876.9,16,876.9,16z"/>
</g>
</svg>
