<?xml version="1.0" encoding="utf-8"?>
<!-- Generator: Adobe Illustrator 24.2.0, SVG Export Plug-In . SVG Version: 6.00 Build 0)  -->
<svg version="1.1" xmlns="http://www.w3.org/2000/svg" xmlns:xlink="http://www.w3.org/1999/xlink" x="0px" y="0px"
	 viewBox="0 0 1639.95 432" style="enable-background:new 0 0 1639.95 432;" xml:space="preserve">
<style type="text/css">
	.st0{fill:#D9D9DA;}
	.st1{fill:#69696D;}
	.st2{font-family:'Roboto-Bold';}
	.st3{font-size:164.9543px;}
	.st4{letter-spacing:12;}
	.st5{font-family:'Roboto-Regular';}
	.st6{fill:#FFFFFF;}
	.st7{fill:url(#SVGID_1_);}
	.st8{fill:#999999;}
	.st9{fill:url(#SVGID_2_);}
	.st10{fill:url(#SVGID_3_);}
	.st11{fill:url(#SVGID_4_);}
	.st12{fill:url(#SVGID_5_);}
	.st13{fill:#08B3E7;}
	.st14{fill:#004D81;}
	.st15{fill:url(#SVGID_6_);}
	.st16{fill:url(#SVGID_7_);}
	.st17{display:none;}
	.st18{display:inline;}
	.st19{display:inline;clip-path:url(#SVGID_9_);}
	.st20{fill:url(#SVGID_10_);}
	.st21{fill:#A6B0BF;}
	.st22{fill:url(#SVGID_11_);}
	.st23{fill:url(#SVGID_12_);}
	.st24{fill:#000377;}
	.st25{clip-path:url(#SVGID_18_);}
	.st26{clip-path:url(#SVGID_20_);}
	.st27{clip-path:url(#SVGID_22_);}
	.st28{clip-path:url(#SVGID_24_);}
	.st29{fill:#024E81;}
	.st30{fill:#0EB4E7;}
</style>
<g id="Camada_1">
	<path class="st0" d="M355.39,360.39H120.18c-28.49,0-51.59-23.1-51.59-51.59V119.24c0-28.49,23.1-51.59,51.59-51.59h235.21
		c28.49,0,51.59,23.1,51.59,51.59v189.55C406.98,337.29,383.88,360.39,355.39,360.39z"/>
	<g>
		<text transform="matrix(1 0 0 1 526.3481 272.6624)"><tspan x="0" y="0" class="st1 st2 st3 st4">Soft</tspan><tspan x="359.02" y="0" class="st1 st5 st3 st4">Amostra</tspan></text>
	</g>
	
		<linearGradient id="SVGID_1_" gradientUnits="userSpaceOnUse" x1="126.759" y1="295.079" x2="126.759" y2="34.8191" gradientTransform="matrix(0.9871 -0.1603 0.1603 0.9871 -20.302 35.8159)">
		<stop  offset="0" style="stop-color:#000377"/>
		<stop  offset="1" style="stop-color:#002CF9"/>
	</linearGradient>
	<path class="st7" d="M228.4,186.51c0,0-19.63-15.22-47.5-20.11c-1.44-0.25-9.02-1.5-19.25-3.99c-1.46-0.36-2.56-0.63-3.08-0.77
		c-24.73-6.28-37.21-9.48-42.65-12.59c-3.1-1.78-19.95-11.94-21.9-28.94c-1.75-15.28,9.55-27.38,16.35-34.67
		c5.17-5.54,14.55-13.97,41.43-24.41c14.15-5.5,34.36-12.02,59.81-15.98c-7.63-2.05-18.72-4.31-32.21-4.5
		c-3.11-0.04-12.57-0.07-30.46,3.09c-19.24,3.39-32.51,5.86-47.99,12.72c-17.1,7.59-38.04,16.88-48.5,38.96
		c-2.08,4.4-9.78,20.66-4.44,38.64c6.33,21.33,27.26,31.56,41.99,38.78c7.74,3.8,26.73,9.25,64.39,20
		c14.05,4.01,22.72,6.39,30.43,14.66c1.74,1.87,14.23,15.81,10.92,33.09c-1.8,9.4-7.73,15.46-11.94,19.65
		c-8.69,8.66-19.12,13.65-39.23,18.91c-18.79,4.91-36.83,7.65-58.55,9.38c-13.34,1.06-31.41,2.01-53.02,1.66
		c10,4.44,24,9.75,41.3,13.52c6.98,1.52,36.37,7.57,76.04,2.9c19.12-2.25,39.48-4.65,62.85-16.75
		c16.78-8.69,35.81-18.55,41.76-39.03c5.19-17.87-2.76-34.54-4.67-38.62C244.06,198.82,234.73,191.42,228.4,186.51z"/>
	<linearGradient id="SVGID_2_" gradientUnits="userSpaceOnUse" x1="220.3604" y1="434.3277" x2="303.9507" y2="59.5986">
		<stop  offset="0" style="stop-color:#454545"/>
		<stop  offset="1" style="stop-color:#888888"/>
	</linearGradient>
	<path class="st9" d="M150.79,124.12c44.77-10.81,82.35-12.04,108.07-11.14c49.06,1.72,79.68,12.07,87.26,14.73
		c25.16,8.84,44.77,15.73,60.86,35.13c22.79,27.48,22.53,60.75,22.35,68.85c-1.07,48.38-34.45,82.08-64.59,111.74
		c-17.6,17.32-45.91,41.23-87.14,61.51c14.07-16.51,25.24-31.27,33.6-42.94c24.34-33.97,31.39-50.8,35.31-66.29
		c1.27-5,2.04-9.21,2.51-12.07c-38.79,23.5-93.38,50.77-162.43,68.8c-44.18,11.54-84.33,16.69-118.01,18.68
		c12.19-5.54,32.09-14.41,56.95-24.6c81.88-33.57,104.46-38.61,140.34-63.33c26.35-18.16,63.75-44.63,62.11-78.41
		c-0.72-14.84-8.73-26.05-13.6-32.86c-20.71-28.98-54.64-36.8-74.51-41.08c-53.93-11.63-101.25,1.09-101.71-1.98
		C138.06,128.15,140.4,126.83,150.79,124.12z"/>
</g>
<g id="Camada_2">
</g>
</svg>
